# xmcd
#
# Track frame offsets:
#	150
#	14071
#	25106
#	35731
#	49993
#	60700
#	70412
#	82491
#	94228
#	105929
#	119589
#	130800
#	141610
#	153519
#	164369
#	176277
#	190764
#	203474
#	215084
#	227021
#	236456
#	245951
#	255932
#	267607
#
# Disc length: 3720 seconds
#
# Revision: 0
# Processed by: cddbd v1.5.2PL0 Copyright (c) Steve Scherf et al.
# Submitted via: audiograbber 1.83.01
#
DISCID=690e8618
DTITLE=Tennessee Ernie Ford - Best of Tennessee Ernie Ford
DYEAR=1960
DGENRE=Country
TTITLE0=Mule Train
TTITLE1=Tennessee Border
TTITLE2=Tailor Made Woman
TTITLE3=Mr.and Mississippi
TTITLE4=Hey, Mr.Cotton Picker
TTITLE5=Anticipation Blues
TTITLE6=Ain't Nobody`s Business But My Own
TTITLE7=I`ll Never Be Free
TTITLE8=The Shot Gun Boogie
TTITLE9=The Strange Little Girl
TTITLE10=Blackberry Boogie
TTITLE11=Country Junction
TTITLE12=Smokey Mountain Boogie
TTITLE13=Milk'em In The Morning Blues
TTITLE14=Blues Stay Away From Me
TTITLE15=Cry Of The Wild Goose
TTITLE16=Stack-O-Lee
TTITLE17=I Don't Know
TTITLE18=Ocean Of Tears
TTITLE19=Kissin' Bug Boogie
TTITLE20=Hey, Good Looking
TTITLE21=Rock City Boogie
TTITLE22=I'm Hog-Tied Over You
TTITLE23=River Of No Return
EXTD=
EXTT0=
EXTT1=
EXTT2=
EXTT3=
EXTT4=
EXTT5=
EXTT6=
EXTT7=
EXTT8=
EXTT9=
EXTT10=
EXTT11=
EXTT12=
EXTT13=
EXTT14=
EXTT15=
EXTT16=
EXTT17=
EXTT18=
EXTT19=
EXTT20=
EXTT21=
EXTT22=
EXTT23=Original by c.m.l.
PLAYORDER=
